<svg id="pause_2_" data-name="pause (2)" xmlns="http://www.w3.org/2000/svg" width="38.444" height="53.043" viewBox="0 0 38.444 53.043">
  <path id="Path_6146" data-name="Path 6146" d="M151.3,0h11.517a1.3,1.3,0,0,1,1.3,1.3V51.745a1.3,1.3,0,0,1-1.3,1.3H151.3a1.3,1.3,0,0,1-1.3-1.3V1.3A1.3,1.3,0,0,1,151.3,0Zm0,0" transform="translate(-125.668)" fill="#355389"/>
  <path id="Path_6147" data-name="Path 6147" d="M1.3,0H12.815a1.3,1.3,0,0,1,1.3,1.3V51.745a1.3,1.3,0,0,1-1.3,1.3H1.3a1.3,1.3,0,0,1-1.3-1.3V1.3A1.3,1.3,0,0,1,1.3,0Zm0,0" fill="#355389"/>
</svg>
